<svg id="visual" viewBox="0 0 900 600" width="900" height="600" xmlns="http://www.w3.org/2000/svg" xmlns:xlink="http://www.w3.org/1999/xlink" version="1.1"><path d="M0 157L13.7 174C27.3 191 54.7 225 82 216C109.3 207 136.7 155 163.8 152C191 149 218 195 245.2 221C272.3 247 299.7 253 327 242C354.3 231 381.7 203 409 205C436.3 207 463.7 239 491 244C518.3 249 545.7 227 573 207C600.3 187 627.7 169 654.8 159C682 149 709 147 736.2 140C763.3 133 790.7 121 818 142C845.3 163 872.7 217 886.3 244L900 271L900 0L886.3 0C872.7 0 845.3 0 818 0C790.7 0 763.3 0 736.2 0C709 0 682 0 654.8 0C627.7 0 600.3 0 573 0C545.7 0 518.3 0 491 0C463.7 0 436.3 0 409 0C381.7 0 354.3 0 327 0C299.7 0 272.3 0 245.2 0C218 0 191 0 163.8 0C136.7 0 109.3 0 82 0C54.7 0 27.3 0 13.7 0L0 0Z" fill="#b9d3fd"></path><path d="M0 367L13.7 368C27.3 369 54.7 371 82 369C109.3 367 136.7 361 163.8 360C191 359 218 363 245.2 367C272.3 371 299.7 375 327 370C354.3 365 381.7 351 409 353C436.3 355 463.7 373 491 385C518.3 397 545.7 403 573 388C600.3 373 627.7 337 654.8 335C682 333 709 365 736.2 376C763.3 387 790.7 377 818 385C845.3 393 872.7 419 886.3 432L900 445L900 269L886.3 242C872.7 215 845.3 161 818 140C790.7 119 763.3 131 736.2 138C709 145 682 147 654.8 157C627.7 167 600.3 185 573 205C545.7 225 518.3 247 491 242C463.7 237 436.3 205 409 203C381.7 201 354.3 229 327 240C299.7 251 272.3 245 245.2 219C218 193 191 147 163.8 150C136.7 153 109.3 205 82 214C54.7 223 27.3 189 13.7 172L0 155Z" fill="#a3c6fc"></path><path d="M0 493L13.7 493C27.3 493 54.7 493 82 494C109.3 495 136.7 497 163.8 491C191 485 218 471 245.2 470C272.3 469 299.7 481 327 493C354.3 505 381.7 517 409 512C436.3 507 463.7 485 491 474C518.3 463 545.7 463 573 463C600.3 463 627.7 463 654.8 466C682 469 709 475 736.2 485C763.3 495 790.7 509 818 520C845.3 531 872.7 539 886.3 543L900 547L900 443L886.3 430C872.7 417 845.3 391 818 383C790.7 375 763.3 385 736.2 374C709 363 682 331 654.8 333C627.7 335 600.3 371 573 386C545.7 401 518.3 395 491 383C463.7 371 436.3 353 409 351C381.7 349 354.3 363 327 368C299.7 373 272.3 369 245.2 365C218 361 191 357 163.8 358C136.7 359 109.3 365 82 367C54.7 369 27.3 367 13.7 366L0 365Z" fill="#89b3f6"></path><path d="M0 601L13.7 601C27.3 601 54.7 601 82 601C109.3 601 136.7 601 163.8 601C191 601 218 601 245.2 601C272.3 601 299.7 601 327 601C354.3 601 381.7 601 409 601C436.3 601 463.7 601 491 601C518.3 601 545.7 601 573 601C600.3 601 627.7 601 654.8 601C682 601 709 601 736.2 601C763.3 601 790.7 601 818 601C845.3 601 872.7 601 886.3 601L900 601L900 545L886.3 541C872.7 537 845.3 529 818 518C790.7 507 763.3 493 736.2 483C709 473 682 467 654.8 464C627.7 461 600.3 461 573 461C545.7 461 518.3 461 491 472C463.7 483 436.3 505 409 510C381.7 515 354.3 503 327 491C299.7 479 272.3 467 245.2 468C218 469 191 483 163.8 489C136.7 495 109.3 493 82 492C54.7 491 27.3 491 13.7 491L0 491Z" fill="#6c9aeb"></path></svg>