<svg id="visual" viewBox="0 0 900 600" width="900" height="600" xmlns="http://www.w3.org/2000/svg" xmlns:xlink="http://www.w3.org/1999/xlink" version="1.1"><path d="M0 67L13.7 79C27.3 91 54.7 115 82 118C109.3 121 136.7 103 163.8 92C191 81 218 77 245.2 86C272.3 95 299.7 117 327 125C354.3 133 381.7 127 409 112C436.3 97 463.7 73 491 65C518.3 57 545.7 65 573 76C600.3 87 627.7 101 654.8 107C682 113 709 111 736.2 111C763.3 111 790.7 113 818 106C845.3 99 872.7 83 886.3 75L900 67L900 0L886.3 0C872.7 0 845.3 0 818 0C790.7 0 763.3 0 736.2 0C709 0 682 0 654.8 0C627.7 0 600.3 0 573 0C545.7 0 518.3 0 491 0C463.7 0 436.3 0 409 0C381.7 0 354.3 0 327 0C299.7 0 272.3 0 245.2 0C218 0 191 0 163.8 0C136.7 0 109.3 0 82 0C54.7 0 27.3 0 13.7 0L0 0Z" fill="#414857"></path><path d="M0 319L13.7 315C27.3 311 54.7 303 82 302C109.3 301 136.7 307 163.8 298C191 289 218 265 245.2 269C272.3 273 299.7 305 327 322C354.3 339 381.7 341 409 316C436.3 291 463.7 239 491 212C518.3 185 545.7 183 573 197C600.3 211 627.7 241 654.8 255C682 269 709 267 736.2 280C763.3 293 790.7 321 818 324C845.3 327 872.7 305 886.3 294L900 283L900 65L886.3 73C872.7 81 845.3 97 818 104C790.7 111 763.3 109 736.2 109C709 109 682 111 654.8 105C627.7 99 600.3 85 573 74C545.7 63 518.3 55 491 63C463.7 71 436.3 95 409 110C381.7 125 354.3 131 327 123C299.7 115 272.3 93 245.2 84C218 75 191 79 163.8 90C136.7 101 109.3 119 82 116C54.7 113 27.3 89 13.7 77L0 65Z" fill="#2b313d"></path><path d="M0 505L13.7 503C27.3 501 54.7 497 82 497C109.3 497 136.7 501 163.8 490C191 479 218 453 245.2 452C272.3 451 299.7 475 327 485C354.3 495 381.7 491 409 484C436.3 477 463.7 467 491 455C518.3 443 545.7 429 573 426C600.3 423 627.7 431 654.8 434C682 437 709 435 736.2 438C763.3 441 790.7 449 818 458C845.3 467 872.7 477 886.3 482L900 487L900 281L886.3 292C872.7 303 845.3 325 818 322C790.7 319 763.3 291 736.2 278C709 265 682 267 654.8 253C627.7 239 600.3 209 573 195C545.7 181 518.3 183 491 210C463.7 237 436.3 289 409 314C381.7 339 354.3 337 327 320C299.7 303 272.3 271 245.2 267C218 263 191 287 163.8 296C136.7 305 109.3 299 82 300C54.7 301 27.3 309 13.7 313L0 317Z" fill="#1f232c"></path><path d="M0 601L13.7 601C27.3 601 54.7 601 82 601C109.3 601 136.7 601 163.8 601C191 601 218 601 245.2 601C272.3 601 299.7 601 327 601C354.3 601 381.7 601 409 601C436.3 601 463.7 601 491 601C518.3 601 545.7 601 573 601C600.3 601 627.7 601 654.8 601C682 601 709 601 736.2 601C763.3 601 790.7 601 818 601C845.3 601 872.7 601 886.3 601L900 601L900 485L886.3 480C872.7 475 845.3 465 818 456C790.7 447 763.3 439 736.2 436C709 433 682 435 654.8 432C627.7 429 600.3 421 573 424C545.7 427 518.3 441 491 453C463.7 465 436.3 475 409 482C381.7 489 354.3 493 327 483C299.7 473 272.3 449 245.2 450C218 451 191 477 163.8 488C136.7 499 109.3 495 82 495C54.7 495 27.3 499 13.7 501L0 503Z" fill="#1a1d24"></path></svg>