<svg id="visual" viewBox="0 0 900 600" width="900" height="600" xmlns="http://www.w3.org/2000/svg" xmlns:xlink="http://www.w3.org/1999/xlink" version="1.1"><path d="M0 241L13.7 243C27.3 245 54.7 249 82 245C109.3 241 136.7 229 163.8 223C191 217 218 217 245.2 216C272.3 215 299.7 213 327 205C354.3 197 381.7 183 409 182C436.3 181 463.7 193 491 202C518.3 211 545.7 217 573 214C600.3 211 627.7 199 654.8 184C682 169 709 151 736.2 146C763.3 141 790.7 149 818 165C845.3 181 872.7 205 886.3 217L900 229L900 0L886.3 0C872.7 0 845.3 0 818 0C790.7 0 763.3 0 736.2 0C709 0 682 0 654.8 0C627.7 0 600.3 0 573 0C545.7 0 518.3 0 491 0C463.7 0 436.3 0 409 0C381.7 0 354.3 0 327 0C299.7 0 272.3 0 245.2 0C218 0 191 0 163.8 0C136.7 0 109.3 0 82 0C54.7 0 27.3 0 13.7 0L0 0Z" fill="#b9d3fd"></path><path d="M0 367L13.7 380C27.3 393 54.7 419 82 432C109.3 445 136.7 445 163.8 435C191 425 218 405 245.2 398C272.3 391 299.7 397 327 396C354.3 395 381.7 387 409 381C436.3 375 463.7 371 491 380C518.3 389 545.7 411 573 419C600.3 427 627.7 421 654.8 424C682 427 709 439 736.2 432C763.3 425 790.7 399 818 379C845.3 359 872.7 345 886.3 338L900 331L900 227L886.3 215C872.7 203 845.3 179 818 163C790.7 147 763.3 139 736.2 144C709 149 682 167 654.8 182C627.7 197 600.3 209 573 212C545.7 215 518.3 209 491 200C463.7 191 436.3 179 409 180C381.7 181 354.3 195 327 203C299.7 211 272.3 213 245.2 214C218 215 191 215 163.8 221C136.7 227 109.3 239 82 243C54.7 247 27.3 243 13.7 241L0 239Z" fill="#a3c6fc"></path><path d="M0 439L13.7 450C27.3 461 54.7 483 82 496C109.3 509 136.7 513 163.8 502C191 491 218 465 245.2 463C272.3 461 299.7 483 327 485C354.3 487 381.7 469 409 469C436.3 469 463.7 487 491 501C518.3 515 545.7 525 573 527C600.3 529 627.7 523 654.8 521C682 519 709 521 736.2 510C763.3 499 790.7 475 818 463C845.3 451 872.7 451 886.3 451L900 451L900 329L886.3 336C872.7 343 845.3 357 818 377C790.7 397 763.3 423 736.2 430C709 437 682 425 654.8 422C627.7 419 600.3 425 573 417C545.7 409 518.3 387 491 378C463.7 369 436.3 373 409 379C381.7 385 354.3 393 327 394C299.7 395 272.3 389 245.2 396C218 403 191 423 163.8 433C136.7 443 109.3 443 82 430C54.7 417 27.3 391 13.7 378L0 365Z" fill="#89b3f6"></path><path d="M0 601L13.7 601C27.3 601 54.7 601 82 601C109.3 601 136.7 601 163.8 601C191 601 218 601 245.2 601C272.3 601 299.7 601 327 601C354.3 601 381.7 601 409 601C436.3 601 463.7 601 491 601C518.3 601 545.7 601 573 601C600.3 601 627.7 601 654.8 601C682 601 709 601 736.2 601C763.3 601 790.7 601 818 601C845.3 601 872.7 601 886.3 601L900 601L900 449L886.3 449C872.7 449 845.3 449 818 461C790.7 473 763.3 497 736.2 508C709 519 682 517 654.8 519C627.7 521 600.3 527 573 525C545.7 523 518.3 513 491 499C463.7 485 436.3 467 409 467C381.7 467 354.3 485 327 483C299.7 481 272.3 459 245.2 461C218 463 191 489 163.8 500C136.7 511 109.3 507 82 494C54.7 481 27.3 459 13.7 448L0 437Z" fill="#6c9aeb"></path></svg>